<svg xmlns="http://www.w3.org/2000/svg" xmlns:xlink="http://www.w3.org/1999/xlink" width="160" height="35" viewBox="0 0 160 35">
  <defs>
    <linearGradient id="linear-gradient" x1="0.01" y1="2.722" x2="0.754" y2="-0.652" gradientUnits="objectBoundingBox">
      <stop offset="0" stop-color="#ffc500"/>
      <stop offset="0.402" stop-color="#e33c1c"/>
      <stop offset="0.882" stop-color="#431274"/>
    </linearGradient>
  </defs>
  <g id="グループ_13" data-name="グループ 13" transform="translate(-849 -2046)">
    <g id="グループ_12" data-name="グループ 12" transform="translate(849 2046)">
      <path id="パス_106" data-name="パス 106" d="M148.287,231.6A4.536,4.536,0,0,1,144,236.324H-7.424a4.536,4.536,0,0,1-4.289-4.724V206.048a4.536,4.536,0,0,1,4.289-4.724H144a4.536,4.536,0,0,1,4.289,4.724Z" transform="translate(11.713 -201.324)" fill="url(#linear-gradient)"/>
      <g id="グループ_10" data-name="グループ 10" transform="translate(18.016 5.891)">
        <path id="パス_107" data-name="パス 107" d="M55.016,243.015H44.73a5.776,5.776,0,0,1-5.472-6.027v-11.33a5.776,5.776,0,0,1,5.472-6.027H55.016a5.776,5.776,0,0,1,5.471,6.027v11.33A5.776,5.776,0,0,1,55.016,243.015ZM44.73,221.438a4.044,4.044,0,0,0-3.83,4.22v11.33a4.044,4.044,0,0,0,3.83,4.219H55.016a4.044,4.044,0,0,0,3.83-4.219v-11.33a4.044,4.044,0,0,0-3.83-4.22Z" transform="translate(-39.258 -219.631)" fill="#fff"/>
        <path id="パス_108" data-name="パス 108" d="M60.013,248.077a5.611,5.611,0,1,1,5.071-5.585A5.352,5.352,0,0,1,60.013,248.077Zm0-9.363a3.8,3.8,0,1,0,3.43,3.778A3.621,3.621,0,0,0,60.013,238.714Z" transform="translate(-49.399 -230.801)" fill="#fff"/>
        <ellipse id="楕円形_13" data-name="楕円形 13" cx="1.294" cy="1.425" rx="1.294" ry="1.425" transform="translate(14.886 4.081)" fill="#fff"/>
      </g>
      <g id="グループ_11" data-name="グループ 11" transform="translate(59.129 12.155)">
        <path id="パス_109" data-name="パス 109" d="M157.395,235.821v10.22H156.16v-10.22Z" transform="translate(-156.16 -235.821)" fill="#fff" stroke="#fff" stroke-linecap="round" stroke-linejoin="round" stroke-width="0.25"/>
        <path id="パス_110" data-name="パス 110" d="M171.574,243.484v1.174h.026a2.292,2.292,0,0,1,2.183-1.346,2.676,2.676,0,0,1,1.1.2,1.832,1.832,0,0,1,.714.558,2.165,2.165,0,0,1,.384.851,5.031,5.031,0,0,1,.11,1.1v4.866h-1.1v-5.01a1.558,1.558,0,0,0-.364-1.088,1.284,1.284,0,0,0-1-.4,2.069,2.069,0,0,0-.877.172,1.662,1.662,0,0,0-.617.487,2.167,2.167,0,0,0-.37.737,3.276,3.276,0,0,0-.123.923v4.18h-1.1v-7.4Z" transform="translate(-165.453 -240.664)" fill="#fff" stroke="#fff" stroke-linecap="round" stroke-linejoin="round" stroke-width="0.25"/>
        <path id="パス_111" data-name="パス 111" d="M196.549,249.231a1.238,1.238,0,0,0,.409.444,1.736,1.736,0,0,0,.572.236,2.959,2.959,0,0,0,.656.072,3.679,3.679,0,0,0,.546-.043,1.86,1.86,0,0,0,.526-.157,1.009,1.009,0,0,0,.4-.337.96.96,0,0,0,.156-.566.839.839,0,0,0-.325-.715,2.652,2.652,0,0,0-.812-.394q-.487-.15-1.059-.272a5.1,5.1,0,0,1-1.059-.344,2.2,2.2,0,0,1-.812-.622,1.727,1.727,0,0,1-.325-1.117,1.912,1.912,0,0,1,.227-.959,1.97,1.97,0,0,1,.585-.651,2.557,2.557,0,0,1,.806-.372,3.377,3.377,0,0,1,.89-.122,4.844,4.844,0,0,1,1.053.107,2.314,2.314,0,0,1,.851.372,1.874,1.874,0,0,1,.591.716,2.945,2.945,0,0,1,.26,1.123h-1.1a1.327,1.327,0,0,0-.169-.594,1.161,1.161,0,0,0-.364-.379,1.564,1.564,0,0,0-.487-.207,2.279,2.279,0,0,0-.539-.065,2.992,2.992,0,0,0-.5.043,1.575,1.575,0,0,0-.461.15.951.951,0,0,0-.338.286.773.773,0,0,0-.13.465.719.719,0,0,0,.2.522,1.585,1.585,0,0,0,.513.344,4.162,4.162,0,0,0,.7.229q.39.093.779.193a7.694,7.694,0,0,1,.812.243,2.555,2.555,0,0,1,.7.379,1.8,1.8,0,0,1,.494.594,1.893,1.893,0,0,1,.188.888,2.227,2.227,0,0,1-.253,1.117,2.079,2.079,0,0,1-.662.715,2.611,2.611,0,0,1-.923.379,4.958,4.958,0,0,1-1.02.107,4.307,4.307,0,0,1-1.065-.129,2.494,2.494,0,0,1-.9-.422,2.1,2.1,0,0,1-.624-.773,2.891,2.891,0,0,1-.26-1.166h1.1A1.476,1.476,0,0,0,196.549,249.231Z" transform="translate(-181.449 -240.664)" fill="#fff" stroke="#fff" stroke-linecap="round" stroke-linejoin="round" stroke-width="0.25"/>
        <path id="パス_112" data-name="パス 112" d="M221.949,239.74v1.073h-1.339v4.595a1.463,1.463,0,0,0,.033.344.356.356,0,0,0,.124.2.513.513,0,0,0,.253.093,3.381,3.381,0,0,0,.422.022h.507v1.073H221.1a3.623,3.623,0,0,1-.734-.064.932.932,0,0,1-.773-.723,3.077,3.077,0,0,1-.091-.83v-4.709h-1.143V239.74h1.143v-2.218h1.1v2.218Z" transform="translate(-196.377 -236.921)" fill="#fff" stroke="#fff" stroke-linecap="round" stroke-linejoin="round" stroke-width="0.25"/>
        <path id="パス_113" data-name="パス 113" d="M242.764,250.855a1.447,1.447,0,0,1-.792.186.9.9,0,0,1-.683-.265,1.227,1.227,0,0,1-.253-.866,2.675,2.675,0,0,1-1.059.866,3.339,3.339,0,0,1-2.17.15,1.93,1.93,0,0,1-.708-.358,1.686,1.686,0,0,1-.474-.637,2.329,2.329,0,0,1-.176-.952,2.357,2.357,0,0,1,.2-1.03,1.83,1.83,0,0,1,.513-.651,2.262,2.262,0,0,1,.728-.379,8.057,8.057,0,0,1,.838-.215q.454-.1.864-.15a4.374,4.374,0,0,0,.721-.143,1.163,1.163,0,0,0,.494-.272.7.7,0,0,0,.182-.522,1.315,1.315,0,0,0-.136-.644.986.986,0,0,0-.351-.372,1.336,1.336,0,0,0-.481-.172,3.306,3.306,0,0,0-.526-.043,2.161,2.161,0,0,0-1.17.294,1.285,1.285,0,0,0-.507,1.109h-1.1a2.838,2.838,0,0,1,.26-1.159,2.116,2.116,0,0,1,.624-.766,2.5,2.5,0,0,1,.89-.422,4.284,4.284,0,0,1,1.072-.129,5.722,5.722,0,0,1,.9.072,2.214,2.214,0,0,1,.812.293,1.637,1.637,0,0,1,.585.621,2.15,2.15,0,0,1,.221,1.042v3.8a3.111,3.111,0,0,0,.045.628q.046.2.305.2a1.228,1.228,0,0,0,.338-.057Zm-1.793-3.793a1.315,1.315,0,0,1-.546.249q-.338.078-.708.128t-.747.114a2.554,2.554,0,0,0-.675.206,1.249,1.249,0,0,0-.487.406,1.215,1.215,0,0,0-.188.719,1.061,1.061,0,0,0,.11.505.977.977,0,0,0,.286.335,1.147,1.147,0,0,0,.409.185,2.07,2.07,0,0,0,.494.057,2.408,2.408,0,0,0,.936-.164,1.94,1.94,0,0,0,.637-.413,1.63,1.63,0,0,0,.364-.541,1.482,1.482,0,0,0,.117-.548Z" transform="translate(-208.07 -240.664)" fill="#fff" stroke="#fff" stroke-linecap="round" stroke-linejoin="round" stroke-width="0.25"/>
        <path id="パス_114" data-name="パス 114" d="M267.111,252.974a2.91,2.91,0,0,1-2.365.9,4.169,4.169,0,0,1-.955-.115,2.765,2.765,0,0,1-.883-.372,2.151,2.151,0,0,1-.656-.673,2.048,2.048,0,0,1-.286-1.016h1.1a.953.953,0,0,0,.188.558,1.405,1.405,0,0,0,.429.372,1.946,1.946,0,0,0,.552.207,2.7,2.7,0,0,0,.572.064,1.893,1.893,0,0,0,.923-.207,1.785,1.785,0,0,0,.624-.572,2.5,2.5,0,0,0,.357-.88,5.407,5.407,0,0,0,.111-1.131v-.487H266.8a1.975,1.975,0,0,1-.864,1.009,2.487,2.487,0,0,1-1.228.322,2.729,2.729,0,0,1-1.312-.3,2.808,2.808,0,0,1-.936-.809,3.572,3.572,0,0,1-.565-1.188,5.355,5.355,0,0,1-.188-1.439,6.164,6.164,0,0,1,.156-1.352,3.871,3.871,0,0,1,.52-1.26,2.954,2.954,0,0,1,.961-.93,2.769,2.769,0,0,1,1.468-.365,2.3,2.3,0,0,1,1.17.308,2.08,2.08,0,0,1,.832.923h.013v-1.059h1.04v6.77A4.168,4.168,0,0,1,267.111,252.974Zm-1.41-3.328a1.906,1.906,0,0,0,.617-.658,3.192,3.192,0,0,0,.344-.923,4.906,4.906,0,0,0,.11-1.03,4.45,4.45,0,0,0-.1-.959,2.833,2.833,0,0,0-.331-.852,1.8,1.8,0,0,0-.591-.608,1.629,1.629,0,0,0-.884-.229,1.763,1.763,0,0,0-.909.222,1.833,1.833,0,0,0-.617.594,2.643,2.643,0,0,0-.351.859,4.589,4.589,0,0,0-.11,1.016,5.582,5.582,0,0,0,.091,1,3.021,3.021,0,0,0,.312.909,1.856,1.856,0,0,0,.585.658,1.564,1.564,0,0,0,.909.251A1.661,1.661,0,0,0,265.7,249.646Z" transform="translate(-224.399 -240.664)" fill="#fff" stroke="#fff" stroke-linecap="round" stroke-linejoin="round" stroke-width="0.25"/>
        <path id="パス_115" data-name="パス 115" d="M290.28,243.48v1.56h.026a3.243,3.243,0,0,1,.988-1.331,2.306,2.306,0,0,1,1.481-.4V244.6a2.866,2.866,0,0,0-1.131.2,1.8,1.8,0,0,0-.754.587,2.53,2.53,0,0,0-.416.937,5.536,5.536,0,0,0-.13,1.267v3.292h-1.1v-7.4Z" transform="translate(-242.201 -240.661)" fill="#fff" stroke="#fff" stroke-linecap="round" stroke-linejoin="round" stroke-width="0.25"/>
        <path id="パス_116" data-name="パス 116" d="M312.392,250.855a1.448,1.448,0,0,1-.793.186.9.9,0,0,1-.682-.265,1.225,1.225,0,0,1-.253-.866,2.675,2.675,0,0,1-1.059.866,3.339,3.339,0,0,1-2.17.15,1.931,1.931,0,0,1-.708-.358,1.69,1.69,0,0,1-.474-.637,2.335,2.335,0,0,1-.175-.952,2.362,2.362,0,0,1,.195-1.03,1.834,1.834,0,0,1,.514-.651,2.264,2.264,0,0,1,.727-.379,8.066,8.066,0,0,1,.838-.215q.454-.1.864-.15a4.386,4.386,0,0,0,.721-.143,1.163,1.163,0,0,0,.494-.272.7.7,0,0,0,.182-.522,1.311,1.311,0,0,0-.136-.644.983.983,0,0,0-.351-.372,1.341,1.341,0,0,0-.481-.172,3.3,3.3,0,0,0-.526-.043,2.16,2.16,0,0,0-1.17.294,1.285,1.285,0,0,0-.507,1.109h-1.1a2.838,2.838,0,0,1,.26-1.159,2.115,2.115,0,0,1,.624-.766,2.5,2.5,0,0,1,.89-.422,4.283,4.283,0,0,1,1.072-.129,5.715,5.715,0,0,1,.9.072,2.214,2.214,0,0,1,.812.293,1.639,1.639,0,0,1,.585.621,2.15,2.15,0,0,1,.221,1.042v3.8a3.105,3.105,0,0,0,.046.628c.03.134.132.2.305.2a1.229,1.229,0,0,0,.338-.057Zm-1.793-3.793a1.316,1.316,0,0,1-.546.249q-.338.078-.708.128t-.747.114a2.561,2.561,0,0,0-.676.206,1.248,1.248,0,0,0-.487.406,1.215,1.215,0,0,0-.188.719,1.061,1.061,0,0,0,.11.505.978.978,0,0,0,.286.335,1.147,1.147,0,0,0,.409.185,2.07,2.07,0,0,0,.494.057,2.41,2.41,0,0,0,.936-.164,1.944,1.944,0,0,0,.637-.413,1.629,1.629,0,0,0,.364-.541,1.482,1.482,0,0,0,.117-.548Z" transform="translate(-253.087 -240.664)" fill="#fff" stroke="#fff" stroke-linecap="round" stroke-linejoin="round" stroke-width="0.25"/>
        <path id="パス_117" data-name="パス 117" d="M333.4,243.484v1.088h.026a2.391,2.391,0,0,1,2.17-1.26,2.261,2.261,0,0,1,1.13.286,1.58,1.58,0,0,1,.715.973,2.455,2.455,0,0,1,.89-.93,2.328,2.328,0,0,1,1.215-.329,3.2,3.2,0,0,1,.916.122,1.835,1.835,0,0,1,.7.379,1.713,1.713,0,0,1,.455.666,2.645,2.645,0,0,1,.163.98v5.425h-1.1v-4.852a3.785,3.785,0,0,0-.052-.644,1.4,1.4,0,0,0-.195-.522,1,1,0,0,0-.4-.351,1.448,1.448,0,0,0-.656-.129,1.651,1.651,0,0,0-1.287.515,1.967,1.967,0,0,0-.468,1.374v4.609h-1.1v-4.852a3.468,3.468,0,0,0-.058-.658,1.487,1.487,0,0,0-.2-.522.968.968,0,0,0-.384-.343,1.366,1.366,0,0,0-.617-.122,1.527,1.527,0,0,0-.825.215,1.924,1.924,0,0,0-.559.515,2.125,2.125,0,0,0-.312.622,1.923,1.923,0,0,0-.1.537v4.609h-1.1v-7.4Z" transform="translate(-270.081 -240.664)" fill="#fff" stroke="#fff" stroke-linecap="round" stroke-linejoin="round" stroke-width="0.25"/>
      </g>
    </g>
  </g>
</svg>
