<svg xmlns="http://www.w3.org/2000/svg" width="160" height="35" viewBox="0 0 160 35">
  <g id="グループ_9" data-name="グループ 9" transform="translate(15.448 -247.84)">
    <rect id="長方形_2705" data-name="長方形 2705" width="160" height="35" rx="6.128" transform="translate(-15.448 247.84)" fill="#0092e5"/>
    <path id="パス_97" data-name="パス 97" d="M38.457,273.175c-2.656,1.575-6.709,1.2-6.709,1.2a13.612,13.612,0,0,0,8.664,2.043c11.134-1.284,10.2-14.548,10.2-14.548l2.132-1.548-2.741.309,2.284-1.857-2.849.713a4.664,4.664,0,0,0-4.73-1.569c-3.2.619-2.97,4.523-2.97,4.523-2.374-.146-6.439-2.3-8.772-5.938,0,0-1.911,5.379,2.873,8.385,0,0-2.114-.325-2.869-1.668a5.43,5.43,0,0,0,3.939,5.57,7.688,7.688,0,0,1-3.059-.595A5.814,5.814,0,0,0,38.457,273.175Z" transform="translate(-27.384 -1.819)" fill="#fff"/>
    <g id="グループ_8" data-name="グループ 8" transform="translate(51.713 260.116)">
      <path id="パス_98" data-name="パス 98" d="M82.56,264.52v-1.086h7.749v1.086h-3.23v8.6H85.79v-8.6Z" transform="translate(-82.56 -263.434)" fill="#fff" stroke="#fff" stroke-linecap="round" stroke-linejoin="round" stroke-width="0.75"/>
      <path id="パス_99" data-name="パス 99" d="M100.561,274.1l-1.424-5.577H99.11L97.7,274.1H96.45L94.2,267.085h1.276l1.588,5.74h.027l1.411-5.74h1.262l1.465,5.74h.027l1.575-5.74h1.194l-2.239,7.015Z" transform="translate(-85.675 -264.411)" fill="#fff" stroke="#fff" stroke-linecap="round" stroke-linejoin="round" stroke-width="0.75"/>
      <path id="パス_100" data-name="パス 100" d="M111.985,264.845v-1.411h1.153v1.411Zm1.153,1.263v7.015h-1.153v-7.015Z" transform="translate(-90.436 -263.434)" fill="#fff" stroke="#fff" stroke-linecap="round" stroke-linejoin="round" stroke-width="0.75"/>
      <path id="パス_101" data-name="パス 101" d="M121.511,266.316v1.017h-1.4v4.356a1.255,1.255,0,0,0,.034.326.332.332,0,0,0,.129.19.571.571,0,0,0,.264.089,3.936,3.936,0,0,0,.441.02h.529v1.017h-.882a4.115,4.115,0,0,1-.767-.061,1.12,1.12,0,0,1-.516-.224.954.954,0,0,1-.292-.461,2.675,2.675,0,0,1-.094-.786v-4.465h-1.194v-1.017h1.194v-2.1h1.153v2.1Z" transform="translate(-91.983 -263.643)" fill="#fff" stroke="#fff" stroke-linecap="round" stroke-linejoin="round" stroke-width="0.75"/>
      <path id="パス_102" data-name="パス 102" d="M130.127,266.316v1.017h-1.4v4.356a1.25,1.25,0,0,0,.034.326.328.328,0,0,0,.129.19.568.568,0,0,0,.264.089,3.927,3.927,0,0,0,.441.02h.529v1.017h-.882a4.115,4.115,0,0,1-.767-.061,1.116,1.116,0,0,1-.516-.224.949.949,0,0,1-.292-.461,2.672,2.672,0,0,1-.1-.786v-4.465h-1.194v-1.017h1.194v-2.1h1.153v2.1Z" transform="translate(-94.29 -263.643)" fill="#fff" stroke="#fff" stroke-linecap="round" stroke-linejoin="round" stroke-width="0.75"/>
      <path id="パス_103" data-name="パス 103" d="M140.845,273.593a3.185,3.185,0,0,1-1.982.6,3.6,3.6,0,0,1-1.459-.271,2.873,2.873,0,0,1-1.038-.76,3.235,3.235,0,0,1-.631-1.167,5.637,5.637,0,0,1-.237-1.479,4.208,4.208,0,0,1,.245-1.465,3.492,3.492,0,0,1,.685-1.153,3.109,3.109,0,0,1,1.045-.76,3.192,3.192,0,0,1,1.323-.272,2.877,2.877,0,0,1,1.553.387,3.081,3.081,0,0,1,.991.984,3.889,3.889,0,0,1,.516,1.3,5.6,5.6,0,0,1,.116,1.343H136.72a2.773,2.773,0,0,0,.108.875,1.979,1.979,0,0,0,.393.733,1.944,1.944,0,0,0,.692.509,2.39,2.39,0,0,0,.991.19,2,2,0,0,0,1.2-.339,1.641,1.641,0,0,0,.617-1.031h1.14A2.806,2.806,0,0,1,140.845,273.593Zm-.278-4.505a1.971,1.971,0,0,0-.421-.631,2.074,2.074,0,0,0-2.225-.421,1.866,1.866,0,0,0-.618.428,2.041,2.041,0,0,0-.406.631,2.393,2.393,0,0,0-.176.767h4.03A2.371,2.371,0,0,0,140.566,269.088Z" transform="translate(-96.73 -264.352)" fill="#fff" stroke="#fff" stroke-linecap="round" stroke-linejoin="round" stroke-width="0.75"/>
      <path id="パス_104" data-name="パス 104" d="M149.776,267.025V268.5h.027a3.132,3.132,0,0,1,1.031-1.262,2.6,2.6,0,0,1,1.547-.38v1.222a3.275,3.275,0,0,0-1.181.19,1.872,1.872,0,0,0-.787.557,2.3,2.3,0,0,0-.434.889,4.778,4.778,0,0,0-.135,1.2v3.12h-1.153v-7.015Z" transform="translate(-100.261 -264.351)" fill="#fff" stroke="#fff" stroke-linecap="round" stroke-linejoin="round" stroke-width="0.75"/>
    </g>
  </g>
</svg>
